<svg xmlns="http://www.w3.org/2000/svg" width="34" height="34" viewBox="0 0 34 34">
    <path fill="#1D9DEE" fill-rule="evenodd" d="M16.8 0c9.278 0 16.8 7.522 16.8 16.8s-7.522 16.8-16.8 16.8S0 26.078 0 16.8 7.522 0 16.8 0zm3.774 10.08c-1.827 0-3.309 1.52-3.309 3.393 0 .266.03.525.086.773-2.75-.142-5.189-1.492-6.82-3.545a3.447 3.447 0 0 0-.449 1.706c0 1.177.585 2.216 1.473 2.824a3.223 3.223 0 0 1-1.499-.425v.044c0 1.643 1.14 3.015 2.654 3.326a3.241 3.241 0 0 1-1.494.058c.421 1.348 1.643 2.329 3.091 2.357a6.536 6.536 0 0 1-4.899 1.405 9.2 9.2 0 0 0 5.072 1.524c6.086 0 9.415-5.17 9.415-9.654 0-.146-.003-.293-.01-.438a6.83 6.83 0 0 0 1.651-1.757 6.478 6.478 0 0 1-1.9.534 3.39 3.39 0 0 0 1.455-1.877 6.533 6.533 0 0 1-2.101.824 3.268 3.268 0 0 0-2.416-1.072z"/>
</svg>
