<svg xmlns="http://www.w3.org/2000/svg" width="35" height="34" viewBox="0 0 35 34">
    <path fill="#BC207C" fill-rule="evenodd" d="M17.3 0c9.278 0 16.8 7.522 16.8 16.8s-7.522 16.8-16.8 16.8S.5 26.078.5 16.8 8.022 0 17.3 0zm.764 8.406h-1.802c-1.365.004-1.69.016-2.427.05-.894.04-1.504.183-2.038.39a4.116 4.116 0 0 0-1.488.969 4.116 4.116 0 0 0-.968 1.487c-.208.534-.35 1.145-.39 2.038-.035.747-.047 1.07-.05 2.477v1.972c.003 1.406.015 1.73.05 2.476.04.894.182 1.504.39 2.038.214.552.502 1.02.968 1.488.467.466.936.754 1.488.968.534.208 1.144.35 2.038.39.747.035 1.07.047 2.476.05h1.972c1.407-.003 1.73-.015 2.477-.05.893-.04 1.504-.182 2.038-.39a4.117 4.117 0 0 0 1.487-.968c.467-.467.754-.936.969-1.488.207-.534.35-1.144.39-2.038.036-.784.048-1.1.05-2.696v-1.533c-.002-1.595-.014-1.912-.05-2.696-.04-.893-.183-1.504-.39-2.038a4.117 4.117 0 0 0-.969-1.487 4.116 4.116 0 0 0-1.487-.969c-.534-.207-1.145-.35-2.038-.39-.784-.036-1.101-.048-2.696-.05zm-.013 1.513c1.565.002 1.865.013 2.64.048.818.038 1.263.174 1.559.29.392.152.672.334.965.628.294.293.476.573.629.965.115.296.251.74.289 1.56.035.774.046 1.074.048 2.64v1.506c-.002 1.565-.013 1.865-.048 2.64-.038.819-.174 1.263-.29 1.56a2.601 2.601 0 0 1-.628.965 2.601 2.601 0 0 1-.965.628c-.296.115-.74.252-1.56.289-.737.034-1.045.045-2.424.048h-1.937c-1.38-.003-1.687-.014-2.425-.048-.819-.037-1.263-.174-1.56-.29a2.601 2.601 0 0 1-.965-.627 2.602 2.602 0 0 1-.628-.966c-.115-.296-.252-.74-.289-1.56-.034-.737-.045-1.044-.048-2.424v-1.937c.003-1.38.014-1.687.048-2.425.037-.818.174-1.263.29-1.559.151-.392.333-.672.627-.965.294-.294.574-.476.966-.629.296-.115.74-.251 1.56-.289.774-.035 1.074-.046 2.64-.048zm-.754 2.571a4.312 4.312 0 1 0 0 8.625 4.312 4.312 0 0 0 0-8.625zm0 1.514a2.8 2.8 0 1 1 0 5.598 2.8 2.8 0 0 1 0-5.598zm4.483-2.692a1.008 1.008 0 1 0 0 2.016 1.008 1.008 0 0 0 0-2.016z"/>
</svg>
