<svg xmlns="http://www.w3.org/2000/svg" width="64" height="64" viewBox="0 0 64 64">
    <path fill="#4951B9" fill-rule="evenodd" d="M32 0C14.344 0 0 14.344 0 32s14.344 32 32 32 32-14.344 32-32S49.656 0 32 0zm0 3c16.032 0 29 12.968 29 29S48.032 61 32 61 3 48.032 3 32 15.968 3 32 3zm15.488 17.001a1.46 1.46 0 0 0-1 .449L27.73 39.509l-8.22-8.351a1.466 1.466 0 0 0-2.067-.045 1.425 1.425 0 0 0-.023 2.043l9.266 9.406c.273.28.65.438 1.045.438.394 0 .772-.157 1.044-.438l19.803-20.114c.42-.418.54-1.05.299-1.591A1.46 1.46 0 0 0 47.488 20z"/>
</svg>
