<?xml version="1.0" standalone="no"?>
<!DOCTYPE svg PUBLIC "-//W3C//DTD SVG 20010904//EN"
 "http://www.w3.org/TR/2001/REC-SVG-20010904/DTD/svg10.dtd">
<svg version="1.0" xmlns="http://www.w3.org/2000/svg"
 width="768.000000pt" height="768.000000pt" viewBox="0 0 768.000000 768.000000"
 preserveAspectRatio="xMidYMid meet">
<metadata>
Created by potrace 1.11, written by Peter Selinger 2001-2013
</metadata>
<g transform="translate(0.000000,768.000000) scale(0.100000,-0.100000)"
fill="#000000" stroke="none">
<path d="M6090 6705 c-47 -7 -94 -15 -105 -18 -11 -3 -33 -9 -50 -12 -38 -8
-60 -13 -60 -15 0 -1 -8 -3 -17 -5 -59 -11 -310 -107 -332 -127 -6 -4 -18 -8
-28 -8 -10 0 -18 -4 -18 -10 0 -5 -5 -10 -11 -10 -16 0 -128 -81 -173 -125
-20 -19 -40 -35 -44 -36 -4 0 -34 -31 -66 -67 -114 -129 -234 -247 -390 -387
-6 -5 -34 -30 -62 -55 -27 -25 -81 -72 -118 -105 -38 -33 -78 -69 -90 -80 -12
-11 -50 -45 -86 -75 -35 -30 -72 -62 -80 -70 -9 -8 -41 -35 -70 -60 -30 -25
-70 -59 -89 -76 -20 -17 -88 -75 -151 -129 -63 -53 -126 -106 -140 -118 -14
-12 -52 -44 -85 -71 -33 -28 -61 -54 -63 -58 -2 -4 -8 -8 -13 -8 -6 0 -20 -10
-33 -22 -31 -32 -266 -223 -274 -224 -38 -5 -158 -67 -197 -102 -54 -48 -56
-50 -285 -232 -107 -85 -199 -158 -205 -162 -5 -5 -28 -22 -50 -39 -22 -16
-47 -36 -56 -43 -9 -7 -51 -41 -95 -74 -43 -34 -83 -65 -89 -70 -5 -4 -28 -21
-50 -37 -22 -17 -45 -34 -52 -40 -7 -5 -18 -15 -25 -20 -23 -19 -452 -339
-483 -361 -45 -31 -338 -242 -350 -251 -5 -5 -23 -17 -40 -27 -16 -11 -34 -23
-40 -28 -12 -11 -134 -95 -262 -181 -51 -34 -93 -65 -93 -68 0 -4 10 -9 22
-13 20 -5 11 -14 -67 -65 -49 -33 -95 -65 -102 -70 -7 -6 -15 -11 -18 -11 -4
0 -21 -11 -39 -25 -18 -14 -36 -25 -40 -25 -4 0 -33 -17 -64 -39 -32 -21 -127
-80 -212 -131 -85 -51 -166 -100 -180 -108 -14 -9 -27 -15 -30 -15 -3 1 -12
-4 -20 -11 -14 -13 -81 -50 -222 -125 -38 -20 -68 -39 -68 -44 0 -4 6 -5 13 0
6 4 17 8 22 10 6 1 21 4 35 7 14 3 41 9 60 12 19 4 44 8 55 10 123 24 419 23
560 -1 17 -3 46 -8 65 -11 19 -3 49 -8 65 -11 17 -2 75 -16 130 -29 55 -14
107 -27 115 -29 33 -7 264 -87 318 -109 74 -30 96 -39 102 -41 113 -38 511
-242 790 -403 153 -89 197 -114 349 -202 80 -45 161 -92 180 -104 78 -49 254
-142 366 -193 128 -59 390 -144 518 -168 12 -3 45 -9 72 -15 28 -6 59 -12 70
-14 32 -6 146 -19 270 -31 57 -5 335 -5 410 0 76 6 140 14 214 26 36 7 77 13
91 15 33 3 211 48 280 70 30 10 57 18 60 19 3 0 30 9 60 20 30 11 57 20 60 20
5 2 58 24 120 52 19 8 76 36 125 61 50 25 100 50 112 56 13 6 23 14 23 19 0 4
5 7 11 7 24 0 306 197 361 252 10 10 18 16 18 13 0 -13 273 270 333 345 130
162 252 354 349 545 39 76 95 203 113 255 1 3 5 12 8 20 3 8 16 44 27 80 11
36 24 72 27 80 3 8 7 27 9 42 1 14 7 35 13 47 6 11 11 24 10 28 -1 4 0 10 1
13 1 3 3 14 5 25 4 20 17 86 20 95 0 3 5 31 9 64 4 32 9 68 11 80 21 123 21
460 0 596 -2 14 -7 45 -10 70 -7 48 -9 61 -20 125 -3 22 -19 87 -35 145 -25
93 -52 206 -55 235 0 6 -4 28 -8 50 -20 115 -25 272 -12 380 29 246 182 505
420 708 98 83 106 89 213 160 57 38 95 70 98 83 6 22 -19 79 -53 123 -173 224
-326 361 -568 508 -26 16 -109 56 -160 77 -22 10 -49 21 -60 26 -31 15 -188
58 -236 66 -24 3 -55 9 -69 11 -59 11 -342 9 -420 -2z"/>
</g>
</svg>
