<svg xmlns="http://www.w3.org/2000/svg" width="38" height="36" viewBox="0 0 38 36">
    <path fill="#4951B9" fill-rule="evenodd" d="M18.056 35.825c-1.993.856-8.285-1.675-9.269-2.238C4.39 31.07 1.24 26.648.297 21.66c-1.058-5.61.76-11.51 4.598-15.691C9.207 1.349 15.72-.805 21.936.274c9.062 1.574 15.446 9.894 16.054 18.862a4.157 4.157 0 0 1-3.859 4.435A4.154 4.154 0 0 1 29.7 19.52l-.009-.383s-.003-.216-.012-.622l-.002-.336c-.038-5.519-4.848-10.45-10.115-11.425C4.757 4.012-.693 25.813 11.877 32.415l.42.242c.144.072.287.132.427.198l.813.375c.534.206 1.04.364 1.495.525.457.107.863.204 1.218.29.17.048.358.069.525.091l.453.061c.543.073.834.11.834.11.371.051.634.393.59.766-.044.365-.258.608-.596.752"/>
</svg>
