<svg xmlns="http://www.w3.org/2000/svg" width="48" height="36" viewBox="0 0 48 36">
    <g fill="none" fill-rule="evenodd">
        <path fill="#C1C1C1" d="M.599 27.358c5.959-1.313 10.975-1.268 15.05.135.14.048.277.095.41.138a25.79 25.79 0 0 1 2.046.761l-.01-.003.283.25c7.016 6.14 13.196 7.564 18.542 4.274l-.01.006c-4.372 3.003-10.064 3.77-15.506 1.873-.907-.316-2.005-.854-3.294-1.612l-.356-.213-1.965-1.123c-1.824-1.076-3.274-1.871-4.35-2.386C6.947 27.26 3.135 26.628 0 27.564l.258-.13zm36.591 5.364l-.078.057-.115.08.193-.137zm.406-.3c-.087.067-.175.133-.263.197l.263-.197zm.26-.203l-.13.102.081-.065.049-.037zm-.003 0l-.046.037-.056.045.102-.082zm.453-.375l-.094.082-.13.108.224-.19zm.345-.303c-.079.072-.159.143-.239.213l.24-.213zm.542-.516l-.058.058h-.001l-.001.002.06-.06zm.06-.06l-.118.118.092-.092.026-.026zm.335-.35l-.103.112-.034.036.137-.148zm.255-.276l-.122.136.069-.08.053-.056zm.347-.399l-.025.028.025-.028zm-22.085-1.548l.491.154-.252-.078-.24-.076zm13.287-.824l-.002.002-.014.009.016-.011zm.007-.004l-.007.004.003-.002.004-.002zm-15.865-.161l.172.076-.172-.076zm-.34-.156l.128.06a26.44 26.44 0 0 1-.127-.06zm16.908-.207l-.123.106-.055.043.178-.15zm-17.318.013l.164.079-.164-.08zm17.878-.58l.088.015a4.568 4.568 0 0 1-.4.374c-.08.066-.162.125-.247.177.195-.173.382-.362.559-.566zm-18.399.32l.295.149a27.57 27.57 0 0 1-.046-.024l-.249-.125zm-.593-.313l.182.098a29.664 29.664 0 0 1-.182-.098zm-.814-.456l.314.18a32.453 32.453 0 0 1-.04-.023l-.274-.157zm19.052 1.18l-.055.043.019-.016zm-17.757-.469l-.17-.088.282.146-.112-.058zm-.69-.369l-.18-.1.235.13-.055-.03zm-.652-.37l-.215-.126.262.154-.047-.027zm-.312-.183a52.571 52.571 0 0 1-1.462-.908h.002c.462.296.957.609 1.493.927z"/>
        <path fill="#0B0B0B" d="M43.26 12.685l.004.006v.001l-.003-.005v-.002zm4.46-7.999c.183.275.186.46.089.614-.118.07-.242.147-.37.229-1.717 1.092-2.909 2.322-3.576 3.69-.42.727-.632 1.622-.635 2.682-.003.282.01.566.042.856l-.016-.182.007.11-.184-.354c-1.991-3.781-4.07-6.236-6.235-7.364-2.246-1.17-4.14-1.17-5.684 0 .362-.824.713-1.473 1.053-1.949.647-.702 1.279-1.245 1.894-1.63 8.632-4.35 13.334 2.877 13.614 3.298z"/>
        <path fill="#4A54B2" d="M36.842 4.967c2.166 1.128 4.244 3.583 6.235 7.364l.184.354v.002c.075.883.274 1.865.599 2.947.982 4.491.187 8.678-2.386 12.561a16.554 16.554 0 0 1-4.554 4.718c-5.346 3.29-11.526 1.865-18.542-4.274l-.283-.25c.165.053.332.106.501.157 6.036 1.825 9.053 1.053 12.562-.842.332-.18.648-.403.944-.664.086-.052.169-.112.249-.178 2.035-1.684 4.07-6.667 3.158-9.895a20.808 20.808 0 0 0-2.877-6.105C31.247 8.986 30.737 7.11 31.1 5.235l.058-.268.18-.13c1.51-1.038 3.345-.994 5.504.13zm6.416 7.688l.004.031v-.001l-.004-.03zm.013-1.536l-.014.14.007-.07.007-.07zm.191-.959l-.023.08.015-.051.008-.029zm.39-.924l-.058.107.059-.107zm.235-.365l-.062.089.062-.089zm.117-.153l-.03.038.027-.034.003-.004z"/>
        <path fill="#E0E0E0" d="M32.098 27.042l-.009.009.007-.006.002-.003zm.055-23.962c-.263.388-.55.919-.86 1.59l-.135.297-.058.268c-.363 1.876.147 3.751 1.532 5.627a20.808 20.808 0 0 1 2.877 6.105c.912 3.228-1.123 8.21-3.158 9.895-.08.066-.163.126-.249.178l-.004.002.142-.128c2.724-2.57 3.642-8.412-.17-12.473-2.789-2.972-6.516-3.42-11.182-1.342l-.327.149-.035.002-.087.07c6.043-4.888 10.774-9.149 11.35-9.827.122-.143.243-.28.364-.413zm-.629 1.635l-.186.122.182-.119.004-.003zm.42-.228l-.105.052.104-.052zm.21-.092l-.139.059.138-.06zm.446-.153l-.146.043c.048-.015.097-.03.146-.043zm.292-.07l-.217.05c.072-.019.144-.035.217-.05zm1.59-.025l-.018-.002c.057.008.115.018.172.028l.024.004-.178-.03zm-1.36-.014l-.189.031c.063-.012.125-.022.189-.031zm.22-.026l-.146.016.147-.016zm.727-.005l-.153-.009.153.009-.153-.009zm-.492-.01l-.135.008c.045-.003.09-.006.135-.007zm.17-.002h.065-.07.006zm-.005 0h-.059.059zm-1.387-1.225l-.105.11.104-.11zm.261-.268l-.146.148.147-.15v.002zm.236-.227l-.136.129.136-.13zm.614-.53l-.13.105.13-.105zm.218-.166l-.1.074a7.73 7.73 0 0 1 .1-.074zm.25-.175l-.117.08c.096-.067.193-.131.288-.19l-.17.11zM32.36 4.317l-.09.032.038-.013a4.06 4.06 0 0 1 .052-.019z"/>
        <path fill="#0E1020" d="M7.565 22.981c1.874.532 4.267 2.868 8.494 4.65-.133-.043-.27-.09-.41-.138-3.88-1.336-8.655-1.411-14.323-.226-.455.07-.897.169-1.326.297 2.295-1.169 4.882-2.764 7.565-4.583z"/>
        <path fill="#2E345D" stroke="#2E345D" stroke-width=".8" d="M32.07 14.44c4.28 4.562 2.597 11.51-.912 13.404-3.509 1.895-6.526 2.667-12.562.842-5.863-1.772-8.812-4.936-11.034-5.565 4.48-3.034 9.224-6.691 13.32-10.02l-.32.147c4.818-2.246 8.654-1.848 11.508 1.193z"/>
    </g>
</svg>
