<svg xmlns="http://www.w3.org/2000/svg" width="64" height="64" viewBox="0 0 64 64">
    <path fill="#4951B9" fill-rule="evenodd" d="M32 0C14.353 0 0 14.353 0 32s14.353 32 32 32 32-14.353 32-32S49.647 0 32 0zm0 4.267c15.342 0 27.733 12.391 27.733 27.733S47.342 59.733 32 59.733 4.267 47.342 4.267 32 16.658 4.267 32 4.267zm-.022 7.066a2.043 2.043 0 0 0-.222.023 2.131 2.131 0 0 0-1.89 2.155V37.69A2.132 2.132 0 0 0 32 39.853a2.132 2.132 0 0 0 2.133-2.164V13.51a2.134 2.134 0 0 0-2.155-2.178zM32 44a3 3 0 1 0 .002 6.002A3 3 0 0 0 32 44z"/>
</svg>
