<svg xmlns="http://www.w3.org/2000/svg" width="42" height="44" viewBox="0 0 42 44">
    <g fill="#4951B9" fill-rule="evenodd">
        <path d="M40.162 18H10.838c-.488 0-.956.195-1.302.543-.343.35-.536.824-.536 1.318v22.278c0 .494.196.968.539 1.315.343.35.81.546 1.299.546h29.324A1.849 1.849 0 0 0 42 42.14V19.86c0-1.027-.822-1.86-1.838-1.86zm-8.712 6.498c.927 0 1.764.565 2.119 1.435a2.344 2.344 0 0 1-.497 2.53 2.273 2.273 0 0 1-2.501.505 2.329 2.329 0 0 1-1.415-2.147c0-1.281 1.026-2.323 2.294-2.323zm3.202 13.928l-18.494.003a1.101 1.101 0 0 1-.916-.505 1.122 1.122 0 0 1-.09-1.054l3.913-9.113-.003-.003a1.954 1.954 0 1 1 3.466-.25l4.007 6.564a1.941 1.941 0 0 0 2.541.735l2.63-1.324-.004.003a1.948 1.948 0 0 1 2.592.83l1.313 2.47h.003a1.14 1.14 0 0 1-.022 1.099 1.109 1.109 0 0 1-.945.548l.009-.003z"/>
        <path d="M11.983 16.199v-.32.003a1.949 1.949 0 0 1 1.19-1.633 1.925 1.925 0 0 1 1.983.306l1.953 1.644H36L31.087 1.254A1.815 1.815 0 0 0 28.79.094L1.243 9.362c-.457.15-.836.481-1.052.917a1.84 1.84 0 0 0-.096 1.4l6.888 20.837v-.003c.06.176.143.337.25.487V19.677c.006-1.919 1.546-3.472 3.448-3.478h1.302zm10.645-7.244h-.003a2.26 2.26 0 0 1 2.432.673c.6.7.727 1.695.315 2.524a2.266 2.266 0 0 1-2.189 1.26 2.277 2.277 0 0 1-1.995-1.56c-.199-.577-.16-1.214.11-1.765a2.267 2.267 0 0 1 1.321-1.16l.009.028z"/>
    </g>
</svg>
