<svg xmlns="http://www.w3.org/2000/svg" width="48" height="48" viewBox="0 0 48 48">
    <path fill="#FFF" fill-rule="evenodd" d="M24 0c13.255 0 24 10.745 24 24S37.255 48 24 48 0 37.255 0 24 10.745 0 24 0zm.61 12.008h-1.53c-2.435.003-2.882.02-4.03.072-1.277.058-2.149.26-2.912.557a5.88 5.88 0 0 0-2.125 1.384 5.88 5.88 0 0 0-1.383 2.125c-.297.763-.5 1.635-.558 2.912-.05 1.109-.068 1.563-.071 3.786v2.32c.003 2.222.02 2.677.071 3.786.058 1.277.261 2.149.558 2.912a5.88 5.88 0 0 0 1.383 2.125 5.88 5.88 0 0 0 2.125 1.383c.763.297 1.635.5 2.912.558 1.28.058 1.688.072 4.946.072s3.667-.014 4.946-.072c1.277-.058 2.15-.261 2.912-.558a5.88 5.88 0 0 0 2.125-1.383 5.88 5.88 0 0 0 1.384-2.125c.296-.763.499-1.635.557-2.912.055-1.194.07-1.63.072-4.331v-1.23c-.002-2.702-.017-3.137-.072-4.331-.058-1.277-.26-2.15-.557-2.912a5.88 5.88 0 0 0-1.384-2.125 5.88 5.88 0 0 0-2.125-1.384c-.763-.296-1.635-.499-2.912-.557-1.194-.055-1.63-.07-4.331-.072zm.526 2.162c2.18.003 2.611.019 3.708.069 1.17.053 1.805.249 2.227.413.56.218.96.478 1.38.897.42.42.68.82.897 1.38.164.422.36 1.058.413 2.227.05 1.097.066 1.528.07 3.708v2.28c-.004 2.18-.02 2.611-.07 3.707-.053 1.17-.249 1.805-.413 2.228-.218.56-.478.96-.897 1.38-.42.419-.82.679-1.38.897-.422.164-1.058.36-2.227.413-1.139.052-1.56.067-3.968.07h-1.76c-2.408-.003-2.829-.018-3.967-.07-1.17-.054-1.805-.25-2.228-.413a3.716 3.716 0 0 1-1.38-.898c-.419-.42-.679-.82-.897-1.38-.164-.422-.36-1.057-.413-2.227-.052-1.138-.067-1.56-.07-3.967v-1.76c.003-2.408.018-2.83.07-3.968.054-1.17.25-1.805.413-2.227.218-.56.478-.96.898-1.38.42-.42.82-.68 1.38-.897.422-.164 1.057-.36 2.227-.413 1.096-.05 1.527-.066 3.708-.07zm-1.14 3.674a6.16 6.16 0 1 0 0 12.32 6.16 6.16 0 0 0 0-12.32zm0 2.161a3.999 3.999 0 1 1 0 7.997 3.999 3.999 0 0 1 0-7.997zm6.404-3.844a1.44 1.44 0 1 0 0 2.879 1.44 1.44 0 0 0 0-2.88z"/>
</svg>
