<svg xmlns="http://www.w3.org/2000/svg" width="51" height="33" viewBox="0 0 51 33">
    <g fill="#4951B9" fill-rule="evenodd">
        <path d="M25.5 0C10.502 0 0 16.5 0 16.5S7.65 33 25.5 33C43.5 33 51 16.5 51 16.5S40.65 0 25.5 0zm0 26.998c-5.85 0-10.499-4.648-10.499-10.498S19.651 6.002 25.5 6.002c5.85 0 10.499 4.648 10.499 10.498S31.349 26.998 25.5 26.998z"/>
        <path d="M30 16.5c0 2.486-2.014 4.5-4.5 4.5a4.499 4.499 0 0 1-4.5-4.5c0-2.486 2.014-4.5 4.5-4.5s4.5 2.014 4.5 4.5"/>
    </g>
</svg>
