<svg xmlns="http://www.w3.org/2000/svg" width="42" height="42" viewBox="0 0 42 42">
    <g fill="#4951B9" fill-rule="evenodd">
        <path d="M40.27 38.778H2.983V1.491a1.491 1.491 0 1 0-2.983 0V40.27a1.493 1.493 0 0 0 1.491 1.491H40.27a1.491 1.491 0 1 0 0-2.983z"/>
        <path d="M7.457 20.88h5.966c.824 0 1.492.825 1.492 1.492v11.932c0 .824-.668 1.491-1.492 1.491H7.457c-.824 0-1.491-.824-1.491-1.491V22.372c0-.824.667-1.491 1.491-1.491zM19.39 11.932h5.965c.824 0 1.492.824 1.492 1.491v20.881c0 .824-.668 1.491-1.492 1.491H19.39c-.824 0-1.491-.824-1.491-1.491v-20.88c0-.825.667-1.492 1.491-1.492zM31.321 2.983h5.966c.824 0 1.491.824 1.491 1.491v29.83c0 .824-.667 1.491-1.491 1.491H31.32c-.824 0-1.491-.824-1.491-1.491V4.474c0-.824.667-1.491 1.491-1.491z"/>
    </g>
</svg>
