<svg xmlns="http://www.w3.org/2000/svg" width="42" height="44" viewBox="0 0 42 44">
    <path fill="#4951B9" fill-rule="evenodd" d="M29.76 24.214c.918.438 4.984 2.534 9.144 5.654A7.866 7.866 0 0 1 42 36.106v1.9c0 .78-.63 1.412-1.403 1.412H17.371a9.89 9.89 0 0 0 .58-3.411c0-4.045-2.37-7.504-5.757-9.162 2.323-1.462 4.162-2.387 4.742-2.68.097-.05.193-.195.193-.294v-2.777c-.726-1.218-1.064-2.534-1.259-3.752-.435-.05-.968-.634-1.548-2.73-.822-2.874.05-3.314.775-3.217a7.573 7.573 0 0 1-.193-4.386c.388-1.608 1.26-2.923 2.227-3.898.63-.682 1.306-1.218 2.032-1.706A6.992 6.992 0 0 1 21.148.381c.58-.194 1.16-.34 1.839-.34 1.984-.195 3.483.34 4.548.974 1.597.878 2.226 2.096 2.226 2.096s4.064.293 2.274 8.821c.533.195.919.925.291 3.168-.775 2.777-1.5 2.924-1.886 2.63a10.042 10.042 0 0 1-.919 2.974v3.168c.044.196.093.293.238.342zM0 36.056c0-4.386 3.533-7.944 7.888-7.944s7.888 3.558 7.888 7.944S12.243 44 7.888 44C3.53 44 0 40.442 0 36.056zm8.468 0l-1.935 1.95a.947.947 0 0 0 0 1.364.953.953 0 0 0 .676.294.945.945 0 0 0 .677-.294l2.612-2.63a.947.947 0 0 0 0-1.365l-2.66-2.633a.953.953 0 0 0-.676-.293.945.945 0 0 0-.677.293.947.947 0 0 0 0 1.365l1.983 1.95z"/>
</svg>
