<svg xmlns="http://www.w3.org/2000/svg" width="48" height="48" viewBox="0 0 48 48">
    <path fill="#FFF" fill-rule="evenodd" d="M24 0c13.255 0 24 10.745 24 24S37.255 48 24 48 0 37.255 0 24 10.745 0 24 0zm5.392 14.4c-2.61 0-4.728 2.17-4.728 4.847 0 .38.042.75.123 1.105-3.929-.203-7.412-2.132-9.743-5.064a4.924 4.924 0 0 0-.64 2.436c0 1.681.834 3.166 2.103 4.034a4.604 4.604 0 0 1-2.141-.606l-.001.062c0 2.348 1.63 4.307 3.792 4.752a4.63 4.63 0 0 1-2.134.083c.601 1.925 2.346 3.327 4.416 3.366a9.338 9.338 0 0 1-6.999 2.008 13.143 13.143 0 0 0 7.246 2.177c8.695 0 13.45-7.386 13.45-13.79 0-.21-.005-.42-.014-.627a9.756 9.756 0 0 0 2.358-2.51 9.254 9.254 0 0 1-2.715.763 4.843 4.843 0 0 0 2.079-2.681 9.332 9.332 0 0 1-3.002 1.176 4.669 4.669 0 0 0-3.45-1.531z"/>
</svg>
