<svg xmlns="http://www.w3.org/2000/svg" width="16" height="15" viewBox="0 0 16 15">
    <g fill="#4951B9" fill-rule="evenodd">
        <path d="M15.007 10.9v3.322c0 .067-.01.128-.024.185a.713.713 0 0 1-.694.571H.714a.712.712 0 0 1-.704-.633c-.01-.043-.01-.08-.01-.128v-3.321a.71.71 0 1 1 1.418 0v2.66h12.176v-2.66a.71.71 0 1 1 1.21-.5.746.746 0 0 1 .203.505z"/>
        <path d="M11.591 7.574l-3.482 3.483c-.005.01-.015.014-.02.019a.821.821 0 0 1-.458.232c-.014 0-.028.004-.043.004-.028.004-.057.004-.085.004l-.08-.004c-.014 0-.028-.004-.043-.004a.807.807 0 0 1-.459-.232l-.019-.02L3.42 7.575a.826.826 0 0 1-.241-.586c0-.213.08-.425.24-.586a.833.833 0 0 1 1.172 0l2.093 2.093.002-7.668c0-.453.374-.827.827-.827.227 0 .435.095.587.24.15.152.24.355.24.587v7.668l2.093-2.093a.833.833 0 0 1 1.172 0 .846.846 0 0 1-.014 1.172z"/>
    </g>
</svg>
