<svg xmlns="http://www.w3.org/2000/svg" width="93" height="60" viewBox="0 0 93 60">
    <g fill="#4951B9" fill-rule="evenodd">
        <path d="M41.984 53.28l-4.688-15.468c-.312-1.094-1.25-2.031-2.5-2.188l-7.5-1.25c-1.25-1.562-1.718-3.28-1.718-5.156l.156-.156c.937-.625 1.719-1.563 1.875-2.813l.625-2.187c.312-1.563.625-2.969.625-4.531v-.782l1.25-4.687c.312-1.25 0-2.5-.625-3.594-1.25-1.875-3.594-4.219-8.438-4.219-.78 0-1.406 0-2.03.157-4.532.78-7.188 5.312-6.095 9.687-.625.938-.625 2.031-.312 3.125l.625 1.25c0 1.25.156 2.5.625 3.594l.625 2.187c.312 1.094.937 2.188 1.875 2.813l.156.156c0 1.875-.469 3.594-1.719 5.156l-7.5 1.25c-1.093.157-2.187 1.094-2.5 2.188L.11 53.124c-.469 1.719.625 3.594 2.344 3.906 5.468 1.25 10.625 1.875 15.469 2.187l1.562-20.155-1.562-3.125h6.25l-1.563 3.125 1.406 20.311c5.625-.156 10.781-.78 15.781-2.187 1.72-.469 2.657-2.188 2.188-3.906zM75.577 29.219l.156-.156c.313-.157.625-.47.938-.782l6.875-1.718s-2.5-1.563-3.125-9.375C79.796 9.375 77.296 6.25 71.046 6.25c-6.406 0-8.75 3.124-9.375 10.938-.625 7.813-3.125 9.375-3.125 9.375l7.03 1.718.938.938c0 1.875-.468 3.594-1.718 5.156h-.157l6.407 10.938 6.406-10.938h-.156c-1.25-1.563-1.72-3.281-1.72-5.156h.001z"/>
        <path d="M59.952 29.219l-7.656-1.094c-1.25-1.563-1.719-3.281-1.719-5.156l.156-.156c.938-.625 1.719-1.563 1.875-2.813l.625-2.187c.313-1.563.625-2.97.625-4.532v-.78l1.25-4.688c.313-1.25 0-2.5-.625-3.594C53.233 2.344 50.89 0 46.046 0c-.782 0-1.406 0-2.031.156-4.532.781-7.188 5.313-6.094 9.688-.625.937-.625 2.031-.313 3.125l.625 1.25c0 1.25.156 2.5.625 3.594L39.483 20c.313 1.094.938 2.188 1.875 2.813l.156.156c0 1.875-.468 3.594-1.718 5.156l-7.5 1.25c-1.094.156-2.188 1.094-2.5 2.188v.156l5.468.937c2.344.313 4.22 2.031 5 4.375l3.282 10.47.937-14.689-1.562-3.125h6.25l-1.563 3.125 1.094 14.531 3.281-10.469c.625-2.344 2.656-3.906 5-4.375l5.469-.937v-.157c-.313-1.093-1.25-2.03-2.5-2.187z"/>
        <path d="M91.984 53.28l-4.688-15.468c-.312-1.094-1.25-2.031-2.5-2.188L80.734 35l-9.688 16.562L61.36 35l-4.063.625c-1.093.157-2.187 1.094-2.5 2.188L50.11 53.124c-.469 1.719.781 2.969 2.344 3.906 4.531 2.969 32.656 3.281 37.344.156 1.562-.937 2.656-2.187 2.187-3.906z"/>
    </g>
</svg>
