<svg xmlns="http://www.w3.org/2000/svg" width="17" height="15" viewBox="0 0 17 15">
    <path fill="#C70B0B" fill-rule="evenodd" d="M2.486 15h11.6c1.909 0 3.109-2.083 2.163-3.714L10.43 1.25c-.945-1.667-3.345-1.667-4.291 0L.322 11.286C-.605 12.935.577 15 2.486 15zm6.206-2.368a.797.797 0 0 1-.797-.79c0-.433.36-.79.797-.79.438 0 .797.357.781.805.016.419-.36.775-.781.775zm-.208-7.869c.37-.103.758.103.912.495.047.137.078.274.078.427-.016.427-.047.872-.078 1.299-.03.666-.077 1.349-.108 2.015-.016.223-.016.41-.016.632-.015.36-.262.632-.587.632-.326 0-.573-.256-.588-.615-.047-1.042-.109-2.084-.155-3.126l-.047-.837c-.014-.427.218-.802.589-.922z"/>
</svg>
